<?xml version="1.0" encoding="utf-8"?>
<!-- Generator: Adobe Illustrator 16.0.0, SVG Export Plug-In . SVG Version: 6.00 Build 0)  -->
<!DOCTYPE svg PUBLIC "-//W3C//DTD SVG 1.1//EN" "http://www.w3.org/Graphics/SVG/1.1/DTD/svg11.dtd">
<svg version="1.1" id="Calque_1" xmlns="http://www.w3.org/2000/svg" xmlns:xlink="http://www.w3.org/1999/xlink" x="0px" y="0px"
	 width="3000px" height="3000px" viewBox="0 0 3000 3000" enable-background="new 0 0 3000 3000" xml:space="preserve">
<title>logo-shiseido-ginza-tokyo</title>
<g>
	<path fill="#C8102E" d="M2327.586,1750.049c-45.234,0-83.511,28.213-83.511,77.304s37.899,77.022,83.511,77.022
		s83.417-28.213,83.417-77.022C2411.003,1778.544,2372.352,1750.049,2327.586,1750.049z M2327.586,1894.124
		c-34.514,0-56.426-26.99-56.426-66.771c0-39.78,21.912-66.959,56.426-66.959s56.427,27.272,56.427,66.959
		S2361.536,1894.124,2327.586,1894.124L2327.586,1894.124z"/>
	<polygon fill="#C8102E" points="2159.248,1825.002 2111.85,1753.904 2079.028,1753.904 2139.498,1837.886 2139.498,1904.375 
		2167.711,1904.375 2167.711,1837.886 2223.386,1753.904 2207.963,1753.904 	"/>
	<polygon fill="#C8102E" points="2059.186,1753.904 2041.129,1753.904 1970.22,1820.864 1970.22,1753.904 1942.006,1753.904 
		1942.006,1904.375 1970.22,1904.375 1970.22,1827.165 2032.194,1904.375 2067.931,1904.375 1992.79,1818.795 	"/>
	<path fill="#C8102E" d="M1816.834,1750.049c-45.047,0-83.512,28.213-83.512,77.304s38.465,77.022,83.512,77.022
		s83.604-28.213,83.604-77.022C1900.438,1778.544,1862.068,1750.049,1816.834,1750.049z M1816.834,1894.124
		c-34.42,0-56.427-26.99-56.427-66.771c0-39.78,21.913-66.959,56.427-66.959s56.426,27.272,56.426,66.959
		S1851.348,1894.124,1816.834,1894.124L1816.834,1894.124z"/>
	<polygon fill="#C8102E" points="1584.64,1763.309 1641.065,1763.309 1641.065,1904.375 1659.875,1904.375 1659.875,1763.309 
		1716.301,1763.309 1716.301,1753.904 1584.64,1753.904 	"/>
	<path fill="#C8102E" d="M1342.664,1753.904l-68.369,150.471h14.106l23.511-56.427h72.414l23.793,56.427h28.213l-68.84-150.471
		h-24.546H1342.664z M1316.709,1838.544l30.658-68.182l31.223,68.182H1316.709L1316.709,1838.544z"/>
	<polygon fill="#C8102E" points="1246.082,1764.344 1246.082,1753.904 1133.229,1753.904 1133.229,1763.309 1217.21,1763.309 
		1123.824,1891.303 1123.824,1904.375 1255.486,1904.375 1255.486,1885.566 1161.536,1885.566 	"/>
	<polygon fill="#C8102E" points="1076.803,1870.707 983.417,1753.904 954.545,1753.904 954.545,1904.375 973.354,1904.375 
		973.354,1777.886 1069.186,1904.375 1086.207,1904.375 1086.207,1753.904 1076.803,1753.904 	"/>
	<rect x="879.311" y="1753.999" fill="#C8102E" width="28.213" height="150.47"/>
	<path fill="#C8102E" d="M775.862,1838.544h28.213v47.022c-9.239,4.698-19.447,7.177-29.812,7.241
		c-35.549,0-61.035-25.769-61.035-65.831s23.793-65.078,59.906-65.078c17.381-0.663,34.205,6.19,46.176,18.809l7.806-7.993
		c-15.106-15.38-36.016-23.647-57.556-22.759c-50.877,0-83.04,31.786-83.04,77.021c0,49.279,35.925,77.305,84.64,77.305
		c22.506,0.847,44.449-7.154,61.128-22.289v-52.853h-56.426V1838.544z"/>
	<path fill="#C8102E" d="M2785.486,1161.428c-128.746,0-214.797,88.872-214.797,203.512c0,114.639,86.051,203.322,214.797,203.322
		S3000,1479.484,3000,1364.845C3000,1250.206,2913.762,1161.428,2785.486,1161.428z M2785.486,1543.717
		c-134.013,0-147.461-122.257-147.461-178.684c0-52.759,11.755-178.684,147.272-178.684c135.517,0,147.555,122.257,147.555,178.684
		c-0.094,52.477-11.943,178.589-147.366,178.589V1543.717z"/>
	<path fill="#C8102E" d="M2316.301,1170.833h-129.78v391.975h131.661c196.27,0,210.564-159.311,210.564-195.8
		C2529.028,1318.857,2505.799,1170.833,2316.301,1170.833z M2313.291,1537.604h-60.939v-342.508h62.445
		c120.939,0,146.896,89.53,146.896,171.254c0,89.06-32.916,171.254-148.496,171.254H2313.291z"/>
	<rect x="2026.646" y="1170.927" fill="#C8102E" width="65.831" height="394.984"/>
	<polygon fill="#C8102E" points="1951.41,1537.697 1753.918,1537.697 1753.918,1368.325 1923.197,1368.325 1923.197,1340.111 
		1753.918,1340.111 1753.918,1199.14 1946.238,1199.14 1946.238,1170.927 1688.088,1170.927 1688.088,1565.911 1951.41,1565.911 	
		"/>
	<path fill="#C8102E" d="M1645.674,1191.616l8.182-18.809c-18.917-8.839-39.498-13.552-60.376-13.824
		c-70.063,1.504-114.546,46.457-142.477,93.573c-19.192,32.639-35.463,66.91-48.62,102.414
		c-11.474,33.009-32.445,90.658-40.627,109.843c-25.204,59.248-47.022,85.298-97.523,83.229
		c-32.069-1.317-65.831-27.179-65.831-27.179l-11.943,16.739c25.551,21.252,57.615,33.102,90.847,33.574
		c58.024,1.128,99.968-28.872,129.404-71.38c21.159-30.658,40.438-77.021,57.648-122.915c16.552-44.295,31.034-99.593,50.125-136.74
		c19.092-37.147,48.715-59.153,84.64-59.153C1615.225,1181.127,1631.106,1184.752,1645.674,1191.616z"/>
	<rect x="1095.611" y="1170.927" fill="#C8102E" width="65.83" height="394.984"/>
	<polygon fill="#C8102E" points="1001.567,1565.911 1001.567,1170.927 935.736,1170.927 935.736,1340.111 719.436,1340.111 
		719.436,1170.927 653.605,1170.927 653.605,1565.911 719.436,1565.911 719.436,1368.325 935.736,1368.325 935.736,1565.911 	"/>
	<path fill="#C8102E" d="M733.542,1121.741c0,0-44.294-27.742-117.555-26.144c-88.966,1.786-164.577,60.846-203.887,120.658
		c-26.59,40.773-47.74,84.846-62.916,131.097c-10.156,29.342-28.213,71.38-41.943,102.32
		c-28.683,64.231-77.962,118.965-155.36,114.451s-134.295-62.257-134.295-62.257L0,1520.676
		c44.034,43.542,102.706,69.124,164.577,71.756c77.492,2.821,166.646-44.953,207.743-114.734
		c20.516-34.851,37.075-71.882,49.373-110.407c18.339-59.529,30.377-102.79,49.844-141.065
		c18.997-36.583,71.474-104.765,155.736-105.142c33.276-0.985,66.265,6.421,95.925,21.536L733.542,1121.741z"/>
</g>
</svg>
